<?xml version="1.0" encoding="UTF-8"?>
<svg width="166px" height="134px" viewBox="0 0 166 134" version="1.1" xmlns="http://www.w3.org/2000/svg" xmlns:xlink="http://www.w3.org/1999/xlink">
    <title>空状态2</title>
    <g id="基础规范" stroke="none" stroke-width="1" fill="none" fill-rule="evenodd">
        <g id="画板" transform="translate(-51.000000, -58.000000)" fill-rule="nonzero">
            <g id="编组-4备份" transform="translate(30.000000, 58.000000)">
                <g id="空状态2" transform="translate(21.000000, 0.000000)">
                    <path d="M161.281527,98.4863544 C144.243569,128.371146 107.538481,128.38627 70.2363764,132.061373 C18.5714109,137.142998 -9.82135787,137.142998 3.10636463,68.2234657 C6.49329017,50.1957979 -2.09095717,23.1903516 13.8333333,7.47663793 C37.874764,-16.2527336 64.1169484,25.2413921 90.9023626,12.4314636 C154.96692,-18.2095221 176.6088,71.5960915 161.281527,98.4863544 Z" id="路径" fill="#F0F6FF"></path>
                    <path d="M103.000242,103.824071 C103.027396,104.347302 105.339628,104.769021 109.065943,104.930368 C112.792259,105.091716 117.366541,104.968181 121.065702,104.606297 C124.764863,104.244414 127.026913,103.69916 126.999758,103.175929 C126.972604,102.652698 124.660372,102.230979 120.934057,102.069632 C117.207741,101.908284 112.633459,102.031819 108.934298,102.393703 C105.235137,102.755586 102.973087,103.30084 103.000242,103.824071 L103.000242,103.824071 Z" id="路径" fill="#E6F0FF"></path>
                    <path d="M126.719135,98.5072535 C127.768688,97.660527 128.576965,96.5315585 128.926815,95.2261887 C129.216347,93.9208187 128.637284,92.3920071 127.358518,91.8863233 C125.910859,91.3806394 124.390817,92.3449668 123.23269,93.297534 C122.074563,94.2618613 120.735478,95.3908299 119.2275,95.1673882 C120.795797,93.7561775 121.555818,91.6628816 121.085329,89.6166261 C121.02501,89.2167831 120.856116,88.8287001 120.566584,88.4876576 C119.758308,87.6409311 118.358904,88.0290141 117.369671,88.6522988 C114.353714,90.7455947 113.473055,94.7087447 113.473055,98.3308522 C113.183523,97.0254822 113.412736,95.6730721 113.412736,94.3677021 C113.412736,93.0623322 113.002566,91.5335206 111.844439,90.8631955 C111.156801,90.4633525 110.33646,90.2869512 109.528184,90.2869512 C108.189099,90.2281507 106.620802,90.404552 105.752207,91.3571193 C104.59408,92.5448882 104.883611,94.5793837 105.872845,95.8847536 C106.862079,97.1901236 108.370057,98.0368499 109.817716,98.9423768 C110.65012,99.4480606 111.892694,100.823991 112.471758,101.541357 C112.70097,101.835359 113.050821,102 113.4248,102 L120.831989,102 C121.145648,102 121.459308,101.929439 121.736776,101.788318 C123.606669,100.882791 125.259413,99.765583 126.719135,98.5072535 Z" id="路径" fill="#ABD1FF"></path>
                    <path d="M14,101.5 C13.9996048,102.035882 16.2867055,102.531078 19.9996807,102.799034 C23.7126559,103.066989 28.2873441,103.066989 32.0003193,102.799034 C35.7132945,102.531078 38.0003952,102.035882 38,101.5 C38.0003952,100.964118 35.7132945,100.468922 32.0003193,100.200966 C28.2873441,99.9330112 23.7126559,99.9330112 19.9996807,100.200966 C16.2867055,100.468922 13.9996048,100.964118 14,101.5 L14,101.5 Z" id="路径" fill="#E6F0FF"></path>
                    <path d="M17,92.0101956 C17,92.0101956 24.0004494,91.7697972 26.0960532,90.1711477 C28.1916569,88.5845183 36.8232791,86.6973907 37.3670033,89.2576338 C37.9107275,91.8178768 47.8676774,101.95067 39.961021,101.998749 C32.0543645,102.046829 21.6443111,100.700598 19.5487073,99.342347 C17.4531035,97.984096 17,92.0101956 17,92.0101956 L17,92.0101956 Z" id="路径" fill="#ABD1FF"></path>
                    <path d="M40.1283486,101.216377 C32.2563162,101.259678 21.7867401,100.047248 19.6882877,98.8239929 C18.1002696,97.9146706 17.4537195,94.5696635 17.2268597,93 L17,93 C17,93 17.4537195,98.3909823 19.5521719,99.6034121 C21.6506243,100.815842 32.1202004,102.082398 39.9922328,101.995796 C42.272173,101.995796 43.043496,101.216377 42.9981241,100.036423 C42.6805204,100.783366 41.8071106,101.216377 40.1283486,101.216377 Z" id="路径" fill="#91C5F9"></path>
                    <path d="M35.6667236,88.1995134 C28.7498837,87.2026202 30.6724922,85.4105862 34.0740303,84.2238087 C35.4050669,83.7609654 67.5205917,72 67.5205917,72 L110,82.5029812 C109.931742,82.5267167 97.2698291,87.8672156 85.7683075,92.2938959 C83.5044075,93.1602435 83.2541272,93.1246402 77.42942,92.7448713 L35.6667236,88.1995134 L35.6667236,88.1995134 Z" id="路径" fill="#E6F0FF"></path>
                    <polygon id="路径" fill="#BBDDFF" opacity="0.05" points="46 46.8096026 75 42 75 70 47.4664837 68.5397351"></polygon>
                    <polygon id="路径" fill="#BBDDFF" opacity="0.1" points="75 42 110 44.6539735 108.068256 69.0380795 75 70"></polygon>
                    <polygon id="路径" fill="#C9E4FF" points="86.8397419 34 76 43.1493776 111.234914 46 117 36.6390042"></polygon>
                    <polygon id="路径" fill="#C9E4FF" points="36 39.0774908 62.4516129 36 76 43.4059041 46.6105991 48"></polygon>
                    <path d="M72,56.6283714 C71.488491,58.4024327 70.056266,61.0635246 68.6112532,63 L67,61.5507668 L69.6726343,56.003702 C69.7109975,55.9662218 70.5933504,56.2160895 72,56.6283714 Z" id="路径" fill="#000000" opacity="0.1"></path>
                    <polygon id="路径" fill="#B9DBFD" points="46 46.8096026 75 42 75 70 47.4664837 68.5397351"></polygon>
                    <polygon id="路径" fill="#91C5F9" points="75 42 110 44.6539735 108.068256 69.0380795 75 70"></polygon>
                    <polygon id="路径" fill="#BCDBFF" points="82 48.5331437 82 88 68.1529562 86.5422476 62.1722365 85.9089616 60.3329049 85.7058322 54.3174807 85.0725463 46 84.2002845 46 46 75.5102828 48.0910384"></polygon>
                    <polygon id="路径" fill="#A7D1FB" points="111 46 111 82.5528236 99.9032387 84.6636045 94.4766093 85.6736018 82 88 82 50.5166171"></polygon>
                    <path d="M36,54.5418803 L46.5257143,46.225641 L82.0914286,48.7623931 L76.8571428,58 L36,54.5418803 Z M110.674286,44 L82.0914286,48.7623931 L91.4057142,57.4854701 L122,52.1247863 L110.674286,44 Z" id="形状" fill="#C9E4FF"></path>
                </g>
            </g>
        </g>
    </g>
</svg>